{
	"asset":{
		"version":"2.0",
		"generator":"Maxon Cinema 4D 2023.2.2 (#200000219)"
	},
	"scenes":[{
		"nodes":[0]
	}],
	"nodes":[{
		"name":"missle_01",
		"mesh":0
	}],
	"meshes":[{
		"name":"missle_01",
		"primitives":[{
			"attributes":{
				"POSITION":1,
				"NORMAL":2,
				"TEXCOORD_0":3
			},
			"indices":0
		}]
	}],
	"accessors":[{
		"bufferView":0,
		"type":"SCALAR",
		"componentType":5123,
		"count":21822,
		"byteOffset":0,
		"min":[0],
		"max":[3649]
	},
	{
		"bufferView":1,
		"type":"VEC3",
		"componentType":5126,
		"count":3650,
		"byteOffset":0,
		"min":[-1.313136100769043,
		-1.1340481042861939,
		-2.6279733180999758],
		"max":[1.3236862421035767,
		1.3919535875320435,
		4.1519269943237309]
	},
	{
		"bufferView":1,
		"type":"VEC3",
		"componentType":5126,
		"count":3650,
		"byteOffset":12,
		"min":[-1.0,
		-0.9999986886978149,
		-1.0],
		"max":[1.0,
		0.9999942779541016,
		0.997401773929596]
	},
	{
		"bufferView":1,
		"type":"VEC2",
		"componentType":5126,
		"count":3650,
		"byteOffset":24,
		"min":[0.010328325442969799,
		0.03620292246341705],
		"max":[0.9833090305328369,
		0.9574998617172241]
	}],
	"bufferViews":[{
		"buffer":0,
		"byteOffset":0,
		"byteLength":43644,
		"target":34963
	},
	{
		"buffer":0,
		"byteOffset":43644,
		"byteLength":116800,
		"target":34962,
		"byteStride":32
	}],
	"buffers":[{
		"uri":"data:application/octet-stream;base64,",
		"byteLength":160444
	}]
}